<?xml version="1.0" encoding="UTF-8"?>
<svg version="1.1" viewBox="0 0 2048 1936" width="514" height="486" xmlns="http://www.w3.org/2000/svg">
<path transform="translate(1409,408)" d="m0 0 22 1 21 4 31 9 14 7 18 14 9 12 6 12 3 13 2 29 1 30 1 15 3 3 25 10 17 9 12 8 11 9 9 8 9 11 9 12 17 28 10 18 8 15 9 16 13 23 11 18 9 15 9 16 9 15 11 18 12 19 14 22 11 17 10 16 13 21 12 20 15 28 8 13 13 21 10 17 9 15 7 14 20 12 13 10 13 12 16 16 9 11 6 8 7 14 4 15 2 17v381l-2 20-5 16-8 15-11 12-7 8-15 12-12 7-17 6-18 3h-50l-45-2-7-1h-8l-3 7-3 17-11 35-14 25-12 17-12 16-5 4-7 8-7 7-8 7-7 6-11 7-11 8-33 17-21 7-25 7-22 3-14 1h-13l-27-2-21-5-16-5-18-6-36-18-15-11-8-6-11-9-22-22-10-13-15-24-6-10-11-28-4-13-7-33-557 1-3 4-6 18-7 25-7 19-9 17-6 11-13 17-9 10-14 16-8 7-11 10-13 9-10 7-17 8-16 8-16 6-35 9-16 2-17 1h-13l-28-2-21-5-14-5-15-5-21-10-22-12-18-13-13-12-12-11-12-13-7-9-16-28-7-16-7-19-5-18-4-21-3-5-2-1-18 1-24 2-16-1-16-4-12-6-14-9-10-9-9-10-7-11-4-8-6-18-2-11-1-162v-441l1-229 2-34 4-30 6-18 10-16 11-12 8-7 13-9 14-8 17-6 17-4 506-1h326l214-1 35-1 5-1 1-2v-90l5-10 9-8 10-8 10-7 13-6 22-7 15-4zm-3 55-8 3-11 10-9 7-4 8-1 19v35l3 5 6 2 32 1h46l9-2 4-4 1-2 1-15v-38l-3-8-7-7-14-7-29-5-10-2zm-1163 145-15 1-13 4-16 8-10 9-6 9-4 13-1 9 1 871 3 9 5 7 8 7 7 5 9 3h18l8-2 21-2 5-6 4-11 5-22 11-28 8-16 7-13 10-15 18-22 8-7 10-9 17-13 20-12 16-8 21-9 23-7 20-4 9-1h48l18 2 25 6 18 6 21 10 27 16 18 14 10 8 20 20 9 11 10 13 12 23 7 18 7 24 5 27 3 5 34 1h310l216-1 3-1 4-13 6-25 11-27 8-17 9-15 8-12 8-9 8-11 26-24 13-10 28-16 27-11 24-7 21-4 11-1h47l21 3 19 5 20 8 21 10 17 10 17 12 16 12 14 12 7 7 10 13 11 18 12 24 7 15 10 30 5 20 4 9 1 1h107l9-2 11-6 8-8 5-10 2-12 1-94-2-8-2-2-76-1-17-2-9-3-11-8-6-8-12-26-2-13-1-20v-44l2-22 5-15 5-10 6-8 5-4 17-6 6-1h86l5-3 2-15v-63l-2-12-6-15-4-8-11-14-9-6-11-8-12-2-75-3-60-1-390-1-20-4-11-6-7-7-7-12-2-5-1-7v-293l3-13 6-12 8-7 4-2 29-1h233l47-1 4-2v-6l-7-17-6-9-12-22-10-16-6-8-18-11-18-8-7-2-8-1zm1089 159-1 2v248l2 7 2 2 10 1h260l3-1 1-8-2-28-3-23-5-24-7-44-5-37-4-33-8-47-2-14-2-1zm301 1-1 1v10l3 10 5 43 8 55 5 32 8 54 5 26 4 13 3 5 4 3 17 1 54 2 18 1 7 1h8l5-2 10-2 1-3-9-19-9-16-9-15-12-23-10-16-9-14-19-28-10-15-14-27-8-16-10-18-8-17-8-10-5-5-15-9zm204 518-8 2-4 5-1 2-1 10v54l2 6 6 3h65l5-3 3-10 1-13v-49l-2-5-7-2zm-1358 121-20 3-24 9-25 12-16 10-11 7-12 11-9 9-8 10-7 10-10 15-6 14-6 12-4 16-4 25v26l4 27 4 19 16 32 9 14 11 15 8 9 7 8 10 8 9 6 17 9 14 7 10 4 28 9 8 1h43l12-2 26-9 10-3 17-8 19-12 14-10 9-8 14-16 6-8 8-11 11-20 5-11 5-21 5-33-1-19-5-32-4-15-9-20-6-11-8-10-12-14-10-10-13-10-14-10-11-7-10-6-20-9-21-8-15-3-9-1zm1028 0-19 3-26 9-20 9-14 9-17 12-8 8-8 7-12 14-5 7-4 7-7 10-7 14-7 18-6 23-2 11-1 12v11l3 21 8 31 9 22 9 13 9 15 8 10 4 2 2 4 10 9 11 8 21 14 19 11 27 8 12 4 7 1h37l13-1 33-10 15-6 21-11 10-7 8-6 10-10 9-12 8-11 7-9 7-12 6-10 6-15 3-12 4-29 1-11v-15l-3-27-3-17-9-21-13-24-8-10-9-11-5-6-8-7-9-8-27-18-21-9-20-8-15-3-9-1z" fill="#3DBBF5"/>
<path transform="translate(663,735)" d="m0 0h182l10 2 6 7 6 13 2 11 1 139 146 2 11 4 6 7 4 11v181l-4 16-5 6-13 4h-143l-1 4-1 112-1 14-4 13-6 12-7 6-9 4-20 2h-133l-25-1-10-2-8-6-7-7-4-7-2-10-1-10-1-116-2-7-2-1h-137l-13-2-10-4-6-6-6-17-1-6v-148l1-14 4-16 5-8 6-5 8-3 11-1 135-1 1-1 1-25 3-16 2-23 2-87 2-7 6-7 10-5zm25 51-1 1-1 143-2 17-3 6-5 5-6 2-10 1h-135l-9 2-5 5v114l5 2 25 1 138 1 5 1 2 10 1 152 1 2h119l5-2 1-2 1-138 2-9 4-8 7-5 3-1 137-1 13-2 1-1v-114l-3-6-1-1h-147l-8-2-4-4-3-8-1-7v-148l-3-5z" fill="#3DBBF5"/>
<path transform="translate(1421,130)" d="m0 0 42 1 21 2 28 5 33 8 33 11 26 11 30 16 30 20 26 20 10 8 11 9 9 9 6 10 3 11v9l-4 10-7 8-7 3-7 1h-9l-10-2-7-5-8-11-8-7-10-9-6-4-13-11-16-10-12-8-18-9-15-8-23-10-25-9-36-8-21-5-23-3h-43l-24 3-19 4-32 8-15 4-50 20-11 7-11 4-21 12-12 8-17 14-16 12-7 3h-14l-8-3-6-4-8-13v-10l7-14 3-4h2v-2l11-9 7-6 19-13 16-10 21-12 34-17 27-11 26-8 37-9 32-5 12-1z" fill="#3DBBF5"/>
<path transform="translate(495,1478)" d="m0 0 19 1 12 3 16 8 17 11 10 10 9 7 10 13 8 14 4 13 4 23v10l-5 25-6 15-6 10-7 11-8 8-13 10-16 11-12 5-13 4-13 2h-27l-15-4-15-6-10-6-13-10-10-9-8-9-10-18-9-27-2-14 1-16 5-17 6-15 8-14 8-11 13-12 5-4 15-9 19-8 16-4zm-4 56-10 2-12 5-10 7-6 7-4 8-1 5-1 27 2 12 3 6 9 11 6 5 10 5 14 2h15l10-2 9-5 14-14 6-12 3-16-2-17-4-10-9-11-11-8-13-5-12-2z" fill="#3DBBF5"/>
<path transform="translate(1511,1479)" d="m0 0h31l11 3 25 12 13 9 17 17 10 15 8 16 4 17v31l-2 12-5 13-8 16-7 11-9 10-17 13-13 8-11 4-9 3-13 2h-32l-18-5-16-8-13-11-5-4-7-8-9-10-9-16-6-14-5-17v-22l4-16 8-20 6-11 12-14 9-10 14-10 22-11 14-4zm10 53-11 2-12 6-13 11-6 10-6 15-1 13 2 10 9 17 9 9 10 7 8 3 8 1h14l14-2 10-5 11-10 5-8 2-9v-36l-2-8-4-6-9-9-16-8-6-2-7-1z" fill="#3DBBF5"/>
<path transform="translate(1411,270)" d="m0 0h18l36 3 28 6 25 7 22 9 25 12 15 10 12 9 17 14 13 13 6 10 2 12-2 10-7 11-6 5-6 2-9 1-9-3-11-9-24-24-12-9-19-9-12-5-16-7-35-11-13-4-16-1h-23l-18 1-12 3-19 6-25 7-19 9-16 8-9 6-8 7-8 6-8 7-13 7-4 1h-8l-10-4-6-5-5-9-2-7v-7l4-11 6-8 10-8 10-9 14-8 16-10 25-12 21-7 36-9 21-4z" fill="#3DBBF5"/>
<path transform="translate(1956,1119)" d="m0 0 3 3 2 11 1 11v381l-2 20-5 16-8 15-11 12-7 8-15 12-12 7-17 6-18 3h-50l-45-2-7-1h-8l-3 7-3 17-11 35-14 25-12 17-12 16-5 4-7 8-7 7-8 7-7 6-11 7-11 8-33 17-21 7-25 7-22 3-14 1h-13l-27-2-21-5-16-5-18-6-36-18-15-11-8-6-11-9-22-22-10-13-15-24-6-10-11-28-4-13-7-33-557 1-3 4-6 18-7 25-7 19-9 17-6 11-13 17-9 10-14 16-8 7-11 10-13 9-10 7-17 8-16 8-16 6-35 9-16 2-17 1h-13l-28-2-21-5-14-5-15-5-21-10-22-12-18-13-13-12-12-11-12-13-7-9-16-28-7-16-7-19-5-18-4-21-3-5-2-1-18 1-24 2-16-1-16-4-12-6-14-9-10-9-9-10-7-11-4-8-6-18-1-4v-8l2-2 3 9 3 10 3 7 2 7 3 5 2 1 1 3 9 9v2l4 2v2l4 2 5 4v2l4 1 9 6 10 4 8 3 10 2h20l8-2h3l6-1 3 1 12 1 7 1 6 4 3 11 2 18 2 1v10l3 1 3 10 7 21 5 7 2 6 6 10 4 7 2 5 6 2 7 8v2l5 2 4 6 6 7 3 1 2 2 6 5 1 4 4 2 5 5v2l4 1 8 5 9 4 6 2 11 5v2l9 3 12 6 7 2 3 2 11 3 17 1h11l6 3 9-1 13-4 5-2 5 2 11 1 7 1v2l7 1 12-2 5-1 8-2h4v-2l12-1 1-4 12-6 4-1 13-6 8-3 4-4 7-3 9-9h2v-2l5-4h2l1-3 4-2 4-5 5-2 1-5 1-3 8-6 4-4 5-2 2-4 8-10 6-8 2-1 3-5 5-7 6-15h2v-7l4-8 5-13 6-21h2l1-7h2v-2h2l2-5 11-4h11l10 1h86l21-2 53 1 22 1 35-1h22l23-1 6 1 4-1h48l15 1 38-1 57 1h81l13 1 8 3 3 4 2 9 3 9 3 12 2 10 7 18 1 6 4 5 3 7 2 3v3l3 1 1 5 3 3 1 5 3 1 5 7v3h4v2l3 1 4 6 2 4 4 2v2l4 2 4 4v2l4 1 3 6 9 6 3 1 4 4v2l5 1 1 2 14 7 3 3 5 2 4 3h3v2l7 2 4 2v2l6 1 11 4 22 6 9 3 27 3h42l9-1 4-2 8-2 5-2 14-3 10-4 8-5 16-7 6-3 4-1 1-2 5-3h3l1-3 9-5h3l1-3 4-3h3l2-4 4-5 5-4 3-5 11-8 7-7 5-2 1-5 6-9 3-1v-3h2l1-5 3-2 1-7 5-5 5-7h2l3-11 6-15v-2h2l1-5 1-2 1-16 2-3 2-6h2l1-3 3-1v-2l47 1 82-1 7-3 16-8 10-6 5-6 5-3 4-5h2v-2h2v-2h2v-4h3l6-12 2-6 4-9 3-17 1-18 2-70v-22l1-12v-239l-1-38-1-11-1-4z" fill="#37A8E0"/>
<path transform="translate(495,1478)" d="m0 0 19 1 12 3 16 8 17 11 10 10 9 7 10 13 8 14 4 13 4 23v10l-5 25-6 15-6 10-7 11-8 8-13 10-16 11-12 5-13 4-13 2h-27l-15-4-15-6-10-6-13-10-10-9-8-9-10-18-9-27v-8h2l4 7 2 7 4 8 1 10 5 5 2 5 2 1 2 7 3 2v2l5 2v2l3 1 2 3 3 1 3 6 9 4 3 2v3l7 1 6 3 9 3 3 2 7 2h18l13 1h11l16-10 10-3 2 1 1-4 5-5 3-4 8-4 4-6 8-5 5-7 4-8 3-1v-5l4-6 1-7 3-7 2-12v-20l-3-11-4-16-1-3h-2l-2-8-3-1-5-6-1-4-2-1v-3l-4-1-5-6-3-1-1-4-4-1-9-9-12-6-9-2-8-3h-16l-24 1-15 4-18 8-4 1v2l-7 3-4 5-3 2-1 3-3 3-3 1-2 3h-2v5l-4 1-2 5-2 1-1 5h-3l-1 5-2 5-2 4-4 12-2 2-1 10-2 6h-3v-10l5-17 6-15 8-14 8-11 13-12 5-4 15-9 19-8 16-4z" fill="#37A8E1"/>
<path transform="translate(1511,1479)" d="m0 0h31l11 3 25 12 13 9 17 17 10 15 8 16 4 17v31l-2 12-5 13-8 16-7 11-9 10-17 13-13 8-11 4-9 3-13 2h-32l-18-5-16-8-13-11-5-4-7-8-9-10-9-16-6-14-3-9 1-6 1 2 3 1v7l1 4-1 3h2v2l3 1v2h2v6l4 5v2h2l3 5-1 2h3l2 6 5 2 1 4h2l1 3 7 6v2h2l1-3 2 3 4 2 4 6 8 4 4 1 11 4 10 3 9 3h16l3-2 13-2 13-7 10-2 4-1 2-4 9-6 5-5 2-5 11-9 3-6 7-12 5-9 4-15 1-33-1-9-4-18-3-3-4-8-9-12-4-4v-2l-3-1-5-5v-2l-7-2-5-5-1-3-6-2-16-6-4-2-15-1-10-1-16 1-8 1-18 7-2 2-7 2-3 3-5 1-1 3-6 4-5 8-3 3h-3l-2 4-8 8-7 11-2 5-2 9-2 3-2 12h-2l-1 4-3 1 1-9 6-18 8-17 7-9 10-11 6-7 14-10 22-11 14-4z" fill="#37A9E1"/>
<path transform="translate(318,1556)" d="m0 0h1v8l-1 6v26l4 27 4 19 16 32 9 14 11 15 8 9 7 8 11 8 10 7 19 9 10 6 37 12 8 1h43l12-2 26-9 10-3 17-8 19-12 14-10 8-7 14-16 6-8 8-11 6-11 3 1-1 1-1 7-3 1-3 9-5 5-6 7-2 6-3 2-3 5-3 4h-2l-2 5-6 6h-3l-2 4-3 1-5 5-3 2h-4v2l-8 3h-3l-2 4-4 1-10 5h-2v2h-2v2l-10 3-7 3h-3v2l-12 2v2l-26 3-9 2h-16l-20-4-10-3v-2h-6l-9-4-9-3-8-4-14-5-7-5-11-5v-2h-3v-2l-6-2-5-6-8-6-3-3-4-7-6-8-3-5v-2h-2l-9-14-14-22-2-5-3-6 1-2h-2l-2-5-3-14-2-13-3-13v-15l-1-4 2-14z" fill="#37A8E0"/>
<path transform="translate(1343,1593)" d="m0 0 2 4 6 28 6 21 8 19 9 13 9 15 8 10 5 5 10 9 11 8 21 14 19 11 27 8 12 4 7 1h37l13-1 33-10 15-6 21-11 10-7 8-6 9-9 9-12 8-11 7-9 7-12 6-10 4-8 3 1-4 10-4 6-2 4h-2l-2 6-4 6-2 5-10 13-4 6h-2l-2 7-10 9-1 2h-2l-1 4h-3v2l-4 4-5 2h-3v2l-8 5-7 3-5 3h-2l-1 2-12 6-26 8-13 2-18 2h-19l-7-2-12-1-10-3-8-3-6-1v-2h-6l-8-3v-2l-9-2-4-3-3-1-1-2-7-3v-2l-6-2-6-3-5-5-9-7-11-10-3-1-4-4v-3l-3-1v-3l-3-1-9-13-7-8-2-5-3-7v-3h-2l-4-9-9-18-4-20-1-2v-7l-1-2v-11z" fill="#37A9E1"/>
<path transform="translate(178,868)" d="m0 0h1v665l-2 2-3-4-2-7-1-28v-36l1-5 1-52v-15l1-31 1-44v-36l1-53v-110l1-10v-186z" fill="#37AAE2"/>
<path transform="translate(488,1402)" d="m0 0h20l15 2 16 3 16 7 20 10 7 4v2l4 2 5 2 5 3 3 4 6 3 5 4v2l5 2 4 4 7 4 4 4v2l4 2 6 9 4 2 4 6v2h2l9 15 1 6h-3l-7-13-8-10-12-14-9-9-13-10-14-10-11-7-10-6-20-9-21-8-15-3-9-1h-29l-20 3-24 9-25 12-16 10-11 7-12 11-8 8-8 10-7 10-10 15-6 14-6 12-4 16-2 9h-1v-22l2-9 3-10 3-4 6-12 5-9 6-9 5-4h2l1-3 4-4h2l2-5 8-10 3-3 10-5 10-7h3l1-3 5-2 4-3h2l1-3 10-5 9-5 4-3 11-2 9-4 9-2 12-2 7-1z" fill="#37A9E1"/>
<path transform="translate(486,1528)" d="m0 0 10 1h11l5 2 2 2 7 3 6 3 4 5 6 2 1 3 4 1 2 4 4 4 1 6 1 1 1 10v11l-1 12-1 1-1 10-4 8h-2l-1 3h-4v3l-2 1-2 4-6 4h-2v2l-8 5h-5v2l-5 1-6 1-22-3-3-2-6-1-3-3-7-3-6-8-6-7v-2h-2l-3-14 1-8v-23l-1-4 2-10 4-5 2-1 3-5 4-2 4-4h3v-2l6-3 5-3zm5 6-10 2-12 5-10 7-6 7-4 8-1 5-1 27 2 12 3 6 9 11 6 5 10 5 14 2h15l10-2 9-5 14-14 6-12 3-16-2-17-4-10-9-11-11-8-13-5-12-2z" fill="#37A9E1"/>
<path transform="translate(1366,762)" d="m0 0h187l17 1 2 4-19 1h-151l-58-1-9-1 4-2 8-1z" fill="#37AAE2"/>
<path transform="translate(421,1366)" d="m0 0 2 1-9 6-10 5-10 3-1 3-16 8-10 6-10 7h-3v2l-5 4h-2l-1 3-8 7-5 5h-3l-2 4h-2l-1 4-10 11h-2l-4 8h-2l-1 4h-2l-1 5-5 9h-2l-1 5-2 5-2 1-3 9-7 17-1 4h-2l-4 17-2 10-3 9-3 8h-3l-2 5-5 3-11 2-23 1-4-2v-1l14-3 5-1 21-2 4-5 4-11 5-22 11-28 8-16 7-13 10-15 18-22 10-9 9-8 17-13 20-12 16-8 21-9z" fill="#37A9E1"/>
<path transform="translate(1035,986)" d="m0 0h1l1 50v76l-4 16-5 6-13 4h-117l-17-1-1-2 2-1 34-1 105-1 4-1 5-10 1-5 1-25 1-15v-48l1-38z" fill="#37A8E0"/>
<path transform="translate(868,1237)" d="m0 0h1v31l-4 13-6 12-7 6-9 4-20 2h-133l-25-1-10-2-8-6-7-7-1-4 5 1 4 2v2l4 2 12 7 4 1h9l10 2 10-1 128-1 14-1 9-4 10-9 3-5 1-11 3-9 1-10 1-12z" fill="#37A9E1"/>
<path transform="translate(1813,1231)" d="m0 0h51l33 1v1l-12 1-73 1-13 4-7 2-1 3-5 4-3 4h-2l-1 6-4 8-2 2 1 3-2 9-1 4v69l-1 9 3 16 1 5-3-1-3-7-2-13-1-20v-44l2-22 5-15 5-10 6-8 6-5 17-6z" fill="#37A9E1"/>
<path transform="translate(825,1087)" d="m0 0 4 1-3 5-3 6-2 6-2 10 2 1v3 2h-2l1 14-1 30 1 5v10l-1 5v49l-2 9-2 5-2-1v-138l2-9 4-8z" fill="#37A9E1"/>
<path transform="translate(815,826)" d="m0 0h1l1 29 2 15 1 17 1 57v8l3 5 4 1 20 1 58 1 6 1v1h-82l-8-2-5-5-3-8-1-7v-108z" fill="#37A8E0"/>
<path transform="translate(1512,1528)" d="m0 0h20l15 3 5 5 10 4 2 4 7 4 4 7-1 4-3-1-4-6-8-8-16-8-6-2-7-1h-9l-11 2-12 6-13 11-8 16-3 8-1 13 2 10 9 17 8 8 10 7 5 3-2 1-8-3h-3v-2l-4-1-1-3-4-1-4-7-3-4-2-5-2-1-2-7-3-7-1-11 1-10 4-13 3-4 1-3h2l2-5 3-2h3l1-3 9-7 5-5 5-2z" fill="#37A9E1"/>
<path transform="translate(1371,605)" d="m0 0h108l30 1 11 2v1h-266v-1l20-2h38z" fill="#37A9E1"/>
<path transform="translate(462,1123)" d="m0 0 7 5 8 3 24 2h85l36 1 9 1 2 4-5-1h-137l-13-2-10-4-6-6z" fill="#37A8E0"/>
<path transform="translate(599,1380)" d="m0 0 6 2 22 13 18 14 10 8 21 21 9 11 10 13 12 23 7 18 4 13v4l-5-1-4-10-5-18-4-10-7-14-8-11-6-8v-2h-2l-7-8-9-10-8-7-5-5-15-11-7-4-5-5-21-14z" fill="#37A9E1"/>
<path transform="translate(1517,1403)" d="m0 0h30l15 4 12 3 6 3v2h7l11 8 1 2-9-3-21-9-18-4-9-1h-35l-19 3-26 9-20 9-14 9-10 7-3-1 3-1 1-3 5-2v-2h3l2-4 10-6 14-6 9-5 16-5 7-3h10l8-3z" fill="#37AAE2"/>
<path transform="translate(1413,1445)" d="m0 0 1 3-8 7-11 10-9 11-6 7-3 6-7 10-7 12-9 23-6 23-2 8-2-2v-7l2-7 3-19 4-11 4-6h2l-1-4 5-10 3-7 3-1 6-8 2-7h3v-2l3-3 2-4h2v-2l8-8 5-3h3l1-5 4-2h5z" fill="#37A9E1"/>
<path transform="translate(1278,818)" d="m0 0h1v187l1 31 2 11 9 14 11 8 9 6 4 2v2l-9-1-11-6-8-8-7-12-2-5-1-7v-210z" fill="#37A8E0"/>
<path transform="translate(1699,1434)" d="m0 0 8 6 12 17 14 27 8 16 11 31 8 32h-3v-2h-2l-4-8-3-11-4-19-3-7-2-8-3-6-2-8-2-1-2-5-8-16-10-18-7-11-6-7z" fill="#37A9E1"/>
<path transform="translate(1903,1424)" d="m0 0h3l2 3v13l1 15v70l-2 13-5 8h-3l3-12 1-7 1-94z" fill="#37AAE2"/>
<path transform="translate(1444,1368)" d="m0 0h5v2l-7 4-7 2-4 2h-5l-1 3h-3v2l-5 3-18 9h-2v3l-11 6-6 5-5 5-6 5h-2l-1 3h-2l-2 4h-2l-1 3-8 7-2 3h-2l-2 4-6 7-3 5-5 5v-3l6-9 9-11 7-9 26-24 13-10 28-16z" fill="#37A9E1"/>
<path transform="translate(683,942)" d="m0 0h2l-1 8-6 8-8 3-10 1h-135l-9 2-3 1v2h-2v-5l3-2 11-1 68-1h65l13-1 4-1 4-9z" fill="#37A9E1"/>
<path transform="translate(1905,1319)" d="m0 0h1l2 12v22l-2 14-5 5-4 1h-56l-9-3-2-2 66-1 4-2 3-10z" fill="#37A9E1"/>
<path transform="translate(1696,1536)" d="m0 0h2l4 11 1 7 1 2 1 19v37l-3 16-6 16-2-1v-7l4-25 2-19v-15l-3-27z" fill="#37A9E1"/>
<path transform="translate(1591,326)" d="m0 0 6 4 13 11 12 12 6 10 2 12-2 10-7 11-6 5-6 2-9 1-9-3-2-4 5 1h9l10-4 5-5 5-9v-14l-2-2-3-9-2-4-7-6v-2h-3l-5-5-10-9z" fill="#37A9E1"/>
<path transform="translate(672,1550)" d="m0 0 3 1v6h2l4 21-1 27-1 6-3 14-1 1-1 8h-2l-1 8-3 7h-3l2-11 5-24 3-22-1-19-2-13z" fill="#37A9E1"/>
<path transform="translate(1897,1548)" d="m0 0h2l-2 5-5 7-11 7-8 2-12 1h-16l-10-1h-21l-16-1-4-1-23-1v-1l98-1 9-2 11-6z" fill="#37A8E0"/>
<path transform="translate(734,1560)" d="m0 0h117v2l-4 1-21 1-15-1-15 1-32 1h-17l-11-2-2-1z" fill="#37A8E0"/>
<path transform="translate(1189,1559)" d="m0 0h99l-3 2-12 2-9 1h-70l-15-2v-2z" fill="#37A8E0"/>
<path transform="translate(852,737)" d="m0 0 4 1 5 6 6 13 2 11v102h-1l-1-40v-18l-1-3v-18h2l-1-9-2-4-2-9-2-14-4-9-2-4v-3h-3z" fill="#37A9E2"/>
<path transform="translate(1695,1021)" d="m0 0h32l39 2 10 2-1 2h-23l-35-1-14-1-10-2z" fill="#37A9E1"/>
<path transform="translate(474,911)" d="m0 0h4l-2 4-9 9-6 12-2 11-1 13-2 70h-1v-75l1-14 4-16 5-8 6-5z" fill="#37AAE3"/>
<path transform="translate(1239,230)" d="m0 0v3l-21 12-12 8-17 14-16 12-7 3h-4l2-4 13-8 11-8 14-11 3-1 5-4 9-6 6-3 7-4z" fill="#37AAE2"/>
<path transform="translate(1553,207)" d="m0 0 9 2v2l3-1 42 21v2l4 1 12 8 8 6 3 2 1 3-6-2-18-12-11-7-9-4-19-10-20-9z" fill="#37A9E2"/>
<path transform="translate(697,1251)" d="m0 0h109v2l-27 1h-83l-2-2z" fill="#37A8E0"/>
<path transform="translate(1277,1028)" d="m0 0h1v8h2l2 11 9 14 11 8 9 6 4 2v2l-9-1-11-6-8-8-7-12-2-5-1-7z" fill="#37A9E2"/>
<path transform="translate(1728,794)" d="m0 0 4 2 11 18 42 66 9 14-1 2-4-5v-2h-2l-1-4h-2l-6-11-6-9v-3h-2l-6-9-5-7-4-7-8-13-7-12-9-14z" fill="#37AAE2"/>
<path transform="translate(1726,278)" d="m0 0 2 2-1 6-5 8-6 5-5 2-7 1h-9l-10-2-7-5-2-5 5 1 7 3 6 3h11l9-2 6-5 1-2h2z" fill="#37AAE2"/>
<path transform="translate(1489,135)" d="m0 0 13 1 31 7 25 7 20 7 19 8 1 2-7-2-17-6-21-7-3-2-16-4-18-4-17-3-9-2z" fill="#37AAE2"/>
<path transform="translate(1297,713)" d="m0 0 4 1-3 3-5 3-7 14-4 9-1 9-1 13v9l-1 7h-1v-40l3-10 6-10 8-7z" fill="#37A8E0"/>
<path transform="translate(539,1359)" d="m0 0 10 1 25 7 20 9 1 2-9-1-9-4-5-3-8-1-7-2-13-3-5-3z" fill="#37AAE2"/>
<path transform="translate(1356,421)" d="m0 0h3v2l-5 1v2h-4l-2 4-11 8-3 1-1 3h-3v2l-8 7-5 6-2 1v3h-2l1-7 6-8 16-13 10-7z" fill="#37A9E1"/>
<path transform="translate(1891,1042)" d="m0 0 5 2 10 8 12 11 16 16 9 11 5 6-1 2h-2l-7-8-10-11-7-9-10-10-11-9-9-8z" fill="#38ABE3"/>
<path transform="translate(1136,240)" d="m0 0 3 1-3 8v6l-1 6 3 7 1 2 3 1v2l5 2 6 3h2v3h-7l-7-4-5-5-6-10v-10z" fill="#37A9E1"/>
<path transform="translate(1310,1496)" d="m0 0 3 1-5 15-3 8-4 17-4 11-3 1 1-9 5-20z" fill="#37A9E1"/>
<path transform="translate(1813,929)" d="m0 0 3 3 11 20 12 20 10 16 8 13-1 3v-2h-2l-5-9-6-9-5-7-12-22v-2h-2l-10-19z" fill="#37AAE3"/>
<path transform="translate(1313,463)" d="m0 0h2l1 27-1 36h-2l-1-19v-43z" fill="#37A8E0"/>
<path transform="translate(1546,1633)" d="m0 0h2v3l-8 5h-13l-15-2-5-2 1-2h24z" fill="#37A9E1"/>
<path transform="translate(1473,1599)" d="m0 0h2l9 17 8 8 10 7 5 3-2 1-8-3h-3v-2l-4-1-1-3-4-1-4-7-3-4-2-5-2-1z" fill="#37AAE3"/>
<path transform="translate(1577,794)" d="m0 0 2 1 2 7 2 11 3 8 1 14-1 7-2-1-7-41z" fill="#37A9E1"/>
<path transform="translate(630,867)" d="m0 0h2l1 9-1 6-1 17-2 6-2 2v-26z" fill="#37A9E1"/>
<path transform="translate(1659,967)" d="m0 0h2l6 32 2 7-1 5-3-3-1-8-3-8-2-10-1-14z" fill="#38ABE4"/>
<path transform="translate(1498,432)" d="m0 0 4 1 13 10 9 12 6 12-1 4-3-4-6-12-2-1-4-7-4-4-4-2v-2h-4l-2-4-2-1z" fill="#37A9E2"/>
<path transform="translate(1678,217)" d="m0 0 5 1 10 9 11 8 12 11 6 7-3 1-14-14v-2l-4-2-10-7-13-11z" fill="#37A9E2"/>
<path transform="translate(649,737)" d="m0 0 2 1-2 4-7 6-1 2h-2l-2 13-2 9h-1v-17l2-7 6-7z" fill="#37AAE2"/>
<path transform="translate(868,790)" d="m0 0h1v80h-1l-1-40v-18l-1-3v-18z" fill="#37A8E0"/>
<path transform="translate(1551,1537)" d="m0 0 7 1 4 2 2 4 7 4 4 7-1 4-3-1-4-6-8-8-9-5z" fill="#38ABE3"/>
<path transform="translate(1794,1412)" d="m0 0 6 1 3 1 7 2 5 3h9l6 2v1h-16l-13-3-6-4z" fill="#37A9E1"/>
<path transform="translate(1642,643)" d="m0 0 4 4 12 21 8 15v3h-2l-10-19-12-21z" fill="#38ABE4"/>
<path transform="translate(1293,149)" d="m0 0h5l-1 2-11 4-6 1-10 4-5 3-10 3-4-1 21-9z" fill="#37AAE3"/>
<path transform="translate(1762,1081)" d="m0 0h37l5 1v2h-28l-14-1z" fill="#37A9E1"/>
<path transform="translate(1515,194)" d="m0 0 8 1 8 2v2l9 1 9 4 2 1v3l-11-3-16-6-7-2v-2z" fill="#37A9E1"/>
<path transform="translate(1833,1420)" d="m0 0h21l26 2v1h-44l-4-2z" fill="#37A8E0"/>
<path transform="translate(1174,207)" d="m0 0h2l-2 4-4 2-1 3-7 4-8 7-3 3h-4l2-4 11-9z" fill="#37A9E1"/>
<path transform="translate(1419,1600)" d="m0 0 1 2 3 1v7l1 4-1 3h2v2l3 1v2h2v6l1 3-2 2-7-15-4-12z" fill="#38ACE4"/>
<path transform="translate(719,1534)" d="m0 0 3 1 2 8 3 14v3l-4-2-5-16v-6z" fill="#37AAE2"/>
<path transform="translate(1815,1083)" d="m0 0 42 1 3 3-33-1-17-1v-1z" fill="#38ABE3"/>
<path transform="translate(1590,886)" d="m0 0 2 1 4 17 1 9 1 12-2 1-4-20-2-15z" fill="#37AAE2"/>
<path transform="translate(441,1360)" d="m0 0h7v2l-7 4h-2l-1 2-9 1-3-3 1-2z" fill="#37A9E1"/>
<path transform="translate(1822,1303)" d="m0 0h1v56l-2-3-1-4v-12z" fill="#37A8E0"/>
<path transform="translate(1023,913)" d="m0 0 5 1 6 8 3 9v7l-2 2-2-6-2-10-4-4v-2l-3-1z" fill="#37AAE2"/>
<path transform="translate(1572,1608)" d="m0 0h3l-1 7-5 6-5 5h-2l-2 4-5 3-2-3 10-8 7-9z" fill="#37A9E2"/>
<path transform="translate(1271,215)" d="m0 0 2 2-12 5-11 7-9 2v-2l6-3 12-7 7-3z" fill="#37A9E1"/>
<path transform="translate(1603,1369)" d="m0 0 5 1 23 11 12 7v2l-4-1-8-4-12-7-12-5z" fill="#38ABE3"/>
<path transform="translate(1559,151)" d="m0 0 11 3 27 11 1 2-7-2-17-6-14-5z" fill="#37AAE2"/>
<path transform="translate(1271,553)" d="m0 0h25l-1 3-7 1-8-1h-10z" fill="#38ADE6"/>
<path transform="translate(1728,794)" d="m0 0 4 2 11 18 7 11-1 2-4-4-5-9-9-14z" fill="#39B0E9"/>
<path transform="translate(1813,929)" d="m0 0 3 3 11 20 6 11-4-2-3-6v-2h-2l-10-19z" fill="#38ABE4"/>
<path transform="translate(1248,166)" d="m0 0 2 1-10 6-2 3-15 5-4 1 3-3z" fill="#37AAE2"/>
<path transform="translate(1408,461)" d="m0 0h7l7 2 11 1 3 2v2l-9-1-19-4z" fill="#37AAE2"/>
<path transform="translate(1553,302)" d="m0 0 6 2 12 7 11 7v2l-6-2-22-14z" fill="#38AAE3"/>
<path transform="translate(1489,135)" d="m0 0 13 1 14 3v3l-17-3-9-2z" fill="#38ACE4"/>
<path transform="translate(1646,1392)" d="m0 0 5 1 18 13 2 4-6-3-11-8-8-6z" fill="#37AAE3"/>
<path transform="translate(1298,204)" d="m0 0h2v2l-22 9-4-1 9-5 8-1v-2z" fill="#37A9E2"/>
<path transform="translate(1711,763)" d="m0 0 3 3 12 20v2l-4-2-6-12-5-8z" fill="#38ADE5"/>
<path transform="translate(1560,566)" d="m0 0 5 1 17 9 4 4-9-3-16-9z" fill="#38ABE3"/>
<path transform="translate(1325,1466)" d="m0 0h2l-1 5-6 11-4 4-1-2z" fill="#37A9E1"/>
<path transform="translate(184,1546)" d="m0 0h3v2l4 2 8 7-1 3-4-2-6-5v-3l-4-2z" fill="#38ACE4"/>
<path transform="translate(1214,183)" d="m0 0 2 1-4 3-8 5-10 6-3-1 9-6z" fill="#38ACE5"/>
<path transform="translate(1430,553)" d="m0 0h20v3h-16l-4-1z" fill="#37A8E0"/>
<path transform="translate(1577,1361)" d="m0 0h7l12 4 1 2-10-1-10-3z" fill="#38ABE3"/>
<path transform="translate(1419,1600)" d="m0 0 1 2 3 1v7l1 4-3 1-3-9z" fill="#37AAE2"/>
<path transform="translate(1515,194)" d="m0 0 8 1 8 2 1 4-12-3-3-1v-2z" fill="#38ABE4"/>
<path transform="translate(1275,372)" d="m0 0 1 3-8 7-4 1v-3h2v-2z" fill="#39AEE6"/>
<path transform="translate(514,960)" d="m0 0h9l2 2-9 2-3 1v2h-2v-5z" fill="#38ABE3"/>
<path transform="translate(1606,171)" d="m0 0 5 1 17 9-1 2-16-8z" fill="#38AAE3"/>
<path transform="translate(1683,716)" d="m0 0 4 4 7 12v2h-2l-6-10-4-7z" fill="#38ACE4"/>
<path transform="translate(1674,1412)" d="m0 0 5 1 10 9v2l-4-2-8-7z" fill="#37AAE2"/>
<path transform="translate(1341,1445)" d="m0 0v3l-6 8-4 4v-3l5-8z" fill="#38ABE3"/>
<path transform="translate(1642,857)" d="m0 0h2l1 3v12h-2l-2-13z" fill="#37AAE2"/>
<path transform="translate(1728,794)" d="m0 0 4 2 7 11-1 4-7-11z" fill="#38ACE4"/>
<path transform="translate(1463,1362)" d="m0 0h6l1 2-6 2-4 1-4-1v-2z" fill="#37AAE2"/>
<path transform="translate(1609,1428)" d="m0 0h4l3 3 4 2v3l-5-2-6-4z" fill="#38ACE5"/>
<path transform="translate(169,578)" d="m0 0h2l-2 4-8 7-2-2z" fill="#38ABE3"/>
<path transform="translate(1427,463)" d="m0 0 7 2 2 1v2l-9-1-3-1v-2z" fill="#38ABE3"/>
<path transform="translate(1543,146)" d="m0 0 12 3 5 3-4 1-6-3-6-1z" fill="#38ABE4"/>
<path transform="translate(1694,736)" d="m0 0 3 1 6 10-2 2-5-8v-2h-2z" fill="#38ABE4"/>
<path transform="translate(1665 1e3)" d="m0 0h2l2 5-1 5-3-3-1-6z" fill="#37AAE2"/>
<path transform="translate(1590,583)" d="m0 0 4 1 9 7-1 2-6-4-6-5z" fill="#38ACE4"/>
<path transform="translate(180,571)" d="m0 0h2l-2 4-7 3-2-1z" fill="#38ACE5"/>
<path transform="translate(1457,323)" d="m0 0h6l5 2-2 2-6-1-3-1z" fill="#38ABE4"/>
<path transform="translate(1350,188)" d="m0 0h7v2l-9 2-1-3z" fill="#38ABE3"/>
</svg>
