<?xml version="1.0" standalone="no"?>
<!DOCTYPE svg PUBLIC "-//W3C//DTD SVG 20010904//EN"
 "http://www.w3.org/TR/2001/REC-SVG-20010904/DTD/svg10.dtd">
<svg version="1.0" xmlns="http://www.w3.org/2000/svg"
 width="494.000000pt" height="505.000000pt" viewBox="0 0 494.000000 505.000000"
 preserveAspectRatio="xMidYMid meet">

<g transform="translate(0.000000,505.000000) scale(0.100000,-0.100000)"
fill="#000000" stroke="none">
<path d="M725 4670 c-262 -6 -280 -10 -375 -74 -69 -46 -121 -113 -154 -196
-30 -76 -37 -431 -34 -1676 l4 -1159 22 -79 c36 -130 137 -234 272 -278 63
-21 82 -22 765 -27 l700 -6 3 -241 2 -242 -237 -4 c-270 -6 -308 -14 -375 -80
-96 -96 -101 -251 -10 -313 l37 -25 1100 1 c605 0 1122 4 1148 8 77 13 91 34
95 144 4 90 3 93 -30 142 -18 27 -53 63 -76 80 l-44 30 -256 8 c-141 4 -257 9
-258 10 -1 1 -4 112 -6 246 l-3 245 635 -3 c717 -2 801 2 897 50 86 41 153
111 200 205 l38 78 -2 1396 -1 1395 -26 80 c-38 118 -102 191 -221 252 -39 20
-73 28 -155 34 -118 9 -3283 8 -3655 -1z m3733 -145 c59 -21 129 -77 162 -131
18 -28 24 -58 31 -167 4 -73 8 -707 9 -1410 l0 -1278 -21 -42 c-36 -71 -84
-122 -151 -158 l-63 -34 -1955 0 -1955 0 -41 22 c-92 49 -138 106 -173 213
-21 62 -21 79 -20 1004 1 518 4 1130 8 1361 6 410 7 421 29 462 33 63 74 106
134 139 l53 29 825 6 c454 3 1331 5 1950 4 1074 -1 1127 -2 1178 -20z m-1578
-3362 c7 -248 8 -442 4 -455 -5 -17 -33 -18 -408 -18 l-403 0 -7 133 c-5 115
-9 328 -7 350 1 4 186 7 411 7 384 0 410 -1 410 -17z m615 -607 c46 -20 81
-92 69 -143 l-6 -23 -947 1 c-520 1 -1011 4 -1091 8 l-145 6 -9 28 c-12 34 4
69 47 101 28 21 40 21 545 26 1166 12 1500 11 1537 -4z"/>
<path d="M1733 4281 c-926 -5 -1155 -9 -1165 -19 -10 -10 -14 -234 -16 -1150
-2 -625 0 -1151 3 -1169 3 -18 13 -34 23 -37 9 -2 865 -8 1902 -11 1675 -6
1887 -5 1905 8 20 15 20 29 24 1069 3 1139 0 1269 -30 1299 -21 21 -128 22
-2646 10z m2538 -286 c4 -88 7 -572 8 -1075 l2 -915 -135 0 c-75 0 -885 1
-1801 3 l-1665 2 0 1065 0 1065 368 1 c202 1 972 5 1712 9 740 3 1381 6 1425
6 l80 -1 6 -160z"/>
<path d="M3082 3722 c-20 -20 -65 -174 -157 -537 -31 -121 -60 -224 -65 -229
-6 -6 -24 5 -46 28 l-37 38 -131 -4 c-152 -5 -176 -13 -176 -62 0 -53 18 -61
143 -61 l110 0 52 -89 c31 -54 60 -92 74 -97 29 -11 73 11 88 43 16 35 79 257
123 433 21 82 43 151 49 153 6 2 11 -1 11 -6 0 -30 75 -524 126 -831 15 -92
39 -131 80 -131 27 0 31 7 80 127 20 48 58 142 85 208 27 66 63 155 80 198 17
42 35 77 40 77 6 0 35 -25 65 -56 l55 -57 109 7 c170 10 199 16 216 42 14 20
14 26 -1 54 -9 17 -22 33 -29 36 -8 3 -62 1 -122 -4 -60 -5 -114 -6 -120 -3
-7 3 -37 39 -68 78 -61 77 -80 93 -119 93 -47 0 -82 -61 -186 -330 -29 -74
-57 -139 -61 -144 -13 -13 -17 9 -70 389 -76 544 -87 602 -118 638 -20 22 -57
22 -80 -1z"/>
<path d="M1227 3701 c-156 -63 -247 -208 -247 -397 0 -175 88 -327 307 -530
317 -296 357 -324 414 -294 12 7 70 56 128 108 280 253 396 387 451 519 57
137 58 293 3 395 -37 67 -121 143 -200 181 -60 28 -78 32 -153 32 -99 -1 -143
-19 -220 -91 -26 -24 -53 -44 -60 -44 -6 0 -34 20 -61 44 -76 68 -129 90 -229
93 -66 3 -96 -1 -133 -16z m222 -125 c27 -15 70 -59 124 -130 61 -79 105 -71
182 32 64 84 110 112 188 112 68 0 119 -23 173 -77 58 -60 74 -104 74 -209 0
-84 -3 -97 -35 -160 -19 -38 -63 -105 -98 -149 -99 -123 -368 -375 -401 -375
-18 0 -116 85 -299 260 -76 71 -190 209 -216 258 -20 39 -41 115 -41 153 0 50
37 157 68 199 29 38 49 56 96 83 38 21 145 23 185 3z"/>
</g>
</svg>
